<?xml version="1.0" encoding="UTF-8" standalone="no"?>
<!DOCTYPE svg PUBLIC "-//W3C//DTD SVG 1.1//EN"
 "http://www.w3.org/Graphics/SVG/1.1/DTD/svg11.dtd">
<!-- Generated by graphviz version 2.46.0 (20210119.1425)
 -->
<!-- Title: dependencies Pages: 1 -->
<svg width="817pt" height="284pt"
 viewBox="0.00 0.00 817.00 284.00" xmlns="http://www.w3.org/2000/svg" xmlns:xlink="http://www.w3.org/1999/xlink">
<g id="graph0" class="graph" transform="scale(1 1) rotate(0) translate(4 280)">
<title>dependencies</title>
<polygon fill="white" stroke="transparent" points="-4,4 -4,-280 813,-280 813,4 -4,4"/>
<text text-anchor="start" x="383.51" y="-42.4" font-family="sans-serif" font-weight="bold" font-size="14.00">Legend</text>
<polygon fill="#ffffb3" stroke="transparent" points="170.5,-10 170.5,-30 190.5,-30 190.5,-10 170.5,-10"/>
<text text-anchor="start" x="194.13" y="-15.4" font-family="sans-serif" font-size="14.00"> &#160;Declarations</text>
<polygon fill="#8dd3c7" stroke="transparent" points="283.5,-10 283.5,-30 303.5,-30 303.5,-10 283.5,-10"/>
<text text-anchor="start" x="307.23" y="-15.4" font-family="sans-serif" font-size="14.00"> &#160;Module</text>
<polygon fill="#80b1d3" stroke="transparent" points="369.5,-10 369.5,-30 389.5,-30 389.5,-10 369.5,-10"/>
<text text-anchor="start" x="393.28" y="-15.4" font-family="sans-serif" font-size="14.00"> &#160;Bootstrap</text>
<polygon fill="#fdb462" stroke="transparent" points="466.5,-10 466.5,-30 486.5,-30 486.5,-10 466.5,-10"/>
<text text-anchor="start" x="490.17" y="-15.4" font-family="sans-serif" font-size="14.00"> &#160;Providers</text>
<polygon fill="#fb8072" stroke="transparent" points="562.5,-10 562.5,-30 582.5,-30 582.5,-10 562.5,-10"/>
<text text-anchor="start" x="586.23" y="-15.4" font-family="sans-serif" font-size="14.00"> &#160;Exports</text>
<g id="clust1" class="cluster">
<title>cluster_NgxMugenScrollModule</title>
<polygon fill="none" stroke="black" stroke-dasharray="1,5" points="8,-70 8,-268 801,-268 801,-70 8,-70"/>
</g>
<g id="clust2" class="cluster">
<title>cluster_NgxMugenScrollModule_declarations</title>
<polygon fill="none" stroke="black" points="24,-78 24,-130 787,-130 787,-78 24,-78"/>
</g>
<g id="clust8" class="cluster">
<title>cluster_NgxMugenScrollModule_exports</title>
<polygon fill="none" stroke="black" points="16,-208 16,-260 793,-260 793,-208 16,-208"/>
</g>
<!-- MugenScrollBottomDirective -->
<g id="node1" class="node">
<title>MugenScrollBottomDirective</title>
<polygon fill="#ffffb3" stroke="black" points="778.69,-122 595.31,-122 595.31,-86 778.69,-86 778.69,-122"/>
<text text-anchor="middle" x="687" y="-99.8" font-family="Times,serif" font-size="14.00">MugenScrollBottomDirective</text>
</g>
<!-- NgxMugenScrollModule -->
<g id="node5" class="node">
<title>NgxMugenScrollModule</title>
<polygon fill="#8dd3c7" stroke="black" points="391.25,-187 388.25,-191 367.25,-191 364.25,-187 234.75,-187 234.75,-151 391.25,-151 391.25,-187"/>
<text text-anchor="middle" x="313" y="-164.8" font-family="Times,serif" font-size="14.00">NgxMugenScrollModule</text>
</g>
<!-- MugenScrollBottomDirective&#45;&gt;NgxMugenScrollModule -->
<g id="edge1" class="edge">
<title>MugenScrollBottomDirective&#45;&gt;NgxMugenScrollModule</title>
<path fill="none" stroke="black" d="M718.61,-122.27C718.61,-140.56 718.61,-166 718.61,-166 718.61,-166 401.69,-166 401.69,-166"/>
<polygon fill="black" stroke="black" points="401.69,-162.5 391.69,-166 401.69,-169.5 401.69,-162.5"/>
</g>
<!-- MugenScrollDataDirective -->
<g id="node2" class="node">
<title>MugenScrollDataDirective</title>
<polygon fill="#ffffb3" stroke="black" points="577.61,-122 410.39,-122 410.39,-86 577.61,-86 577.61,-122"/>
<text text-anchor="middle" x="494" y="-99.8" font-family="Times,serif" font-size="14.00">MugenScrollDataDirective</text>
</g>
<!-- MugenScrollDataDirective&#45;&gt;NgxMugenScrollModule -->
<g id="edge2" class="edge">
<title>MugenScrollDataDirective&#45;&gt;NgxMugenScrollModule</title>
<path fill="none" stroke="black" d="M521.93,-122.01C521.93,-138.05 521.93,-159 521.93,-159 521.93,-159 401.39,-159 401.39,-159"/>
<polygon fill="black" stroke="black" points="401.39,-155.5 391.39,-159 401.39,-162.5 401.39,-155.5"/>
</g>
<!-- MugenScrollTopDirective -->
<g id="node3" class="node">
<title>MugenScrollTopDirective</title>
<polygon fill="#ffffb3" stroke="black" points="391.73,-122 228.27,-122 228.27,-86 391.73,-86 391.73,-122"/>
<text text-anchor="middle" x="310" y="-99.8" font-family="Times,serif" font-size="14.00">MugenScrollTopDirective</text>
</g>
<!-- MugenScrollTopDirective&#45;&gt;NgxMugenScrollModule -->
<g id="edge3" class="edge">
<title>MugenScrollTopDirective&#45;&gt;NgxMugenScrollModule</title>
<path fill="none" stroke="black" d="M313,-122.11C313,-122.11 313,-140.99 313,-140.99"/>
<polygon fill="black" stroke="black" points="309.5,-140.99 313,-150.99 316.5,-140.99 309.5,-140.99"/>
</g>
<!-- NgxMugenScrollComponent -->
<g id="node4" class="node">
<title>NgxMugenScrollComponent</title>
<polygon fill="#ffffb3" stroke="black" points="210.04,-122 31.96,-122 31.96,-86 210.04,-86 210.04,-122"/>
<text text-anchor="middle" x="121" y="-99.8" font-family="Times,serif" font-size="14.00">NgxMugenScrollComponent</text>
</g>
<!-- NgxMugenScrollComponent&#45;&gt;NgxMugenScrollModule -->
<g id="edge4" class="edge">
<title>NgxMugenScrollComponent&#45;&gt;NgxMugenScrollModule</title>
<path fill="none" stroke="black" d="M147.92,-122.02C147.92,-139.37 147.92,-163 147.92,-163 147.92,-163 224.33,-163 224.33,-163"/>
<polygon fill="black" stroke="black" points="224.33,-166.5 234.33,-163 224.33,-159.5 224.33,-166.5"/>
</g>
<!-- MugenScrollBottomDirective  -->
<g id="node6" class="node">
<title>MugenScrollBottomDirective </title>
<polygon fill="#fb8072" stroke="black" points="785.19,-252 598.81,-252 598.81,-216 785.19,-216 785.19,-252"/>
<text text-anchor="middle" x="692" y="-229.8" font-family="Times,serif" font-size="14.00">MugenScrollBottomDirective </text>
</g>
<!-- NgxMugenScrollModule&#45;&gt;MugenScrollBottomDirective  -->
<g id="edge5" class="edge">
<title>NgxMugenScrollModule&#45;&gt;MugenScrollBottomDirective </title>
<path fill="none" stroke="black" stroke-dasharray="5,2" d="M391.43,-173C493.41,-173 658.64,-173 658.64,-173 658.64,-173 658.64,-205.7 658.64,-205.7"/>
<polygon fill="black" stroke="black" points="655.14,-205.7 658.64,-215.7 662.14,-205.7 655.14,-205.7"/>
</g>
<!-- MugenScrollDataDirective  -->
<g id="node7" class="node">
<title>MugenScrollDataDirective </title>
<polygon fill="#fb8072" stroke="black" points="580.61,-252 409.39,-252 409.39,-216 580.61,-216 580.61,-252"/>
<text text-anchor="middle" x="495" y="-229.8" font-family="Times,serif" font-size="14.00">MugenScrollDataDirective </text>
</g>
<!-- NgxMugenScrollModule&#45;&gt;MugenScrollDataDirective  -->
<g id="edge6" class="edge">
<title>NgxMugenScrollModule&#45;&gt;MugenScrollDataDirective </title>
<path fill="none" stroke="black" stroke-dasharray="5,2" d="M391.33,-180C428.99,-180 466.07,-180 466.07,-180 466.07,-180 466.07,-205.72 466.07,-205.72"/>
<polygon fill="black" stroke="black" points="462.57,-205.72 466.07,-215.72 469.57,-205.72 462.57,-205.72"/>
</g>
<!-- MugenScrollTopDirective  -->
<g id="node8" class="node">
<title>MugenScrollTopDirective </title>
<polygon fill="#fb8072" stroke="black" points="391.73,-252 224.27,-252 224.27,-216 391.73,-216 391.73,-252"/>
<text text-anchor="middle" x="308" y="-229.8" font-family="Times,serif" font-size="14.00">MugenScrollTopDirective </text>
</g>
<!-- NgxMugenScrollModule&#45;&gt;MugenScrollTopDirective  -->
<g id="edge7" class="edge">
<title>NgxMugenScrollModule&#45;&gt;MugenScrollTopDirective </title>
<path fill="none" stroke="black" stroke-dasharray="5,2" d="M313,-187.11C313,-187.11 313,-205.99 313,-205.99"/>
<polygon fill="black" stroke="black" points="309.5,-205.99 313,-215.99 316.5,-205.99 309.5,-205.99"/>
</g>
<!-- NgxMugenScrollComponent  -->
<g id="node9" class="node">
<title>NgxMugenScrollComponent </title>
<polygon fill="#fb8072" stroke="black" points="206.04,-252 23.96,-252 23.96,-216 206.04,-216 206.04,-252"/>
<text text-anchor="middle" x="115" y="-229.8" font-family="Times,serif" font-size="14.00">NgxMugenScrollComponent </text>
</g>
<!-- NgxMugenScrollModule&#45;&gt;NgxMugenScrollComponent  -->
<g id="edge8" class="edge">
<title>NgxMugenScrollModule&#45;&gt;NgxMugenScrollComponent </title>
<path fill="none" stroke="black" stroke-dasharray="5,2" d="M234.63,-175C170.33,-175 89.83,-175 89.83,-175 89.83,-175 89.83,-205.98 89.83,-205.98"/>
<polygon fill="black" stroke="black" points="86.33,-205.98 89.83,-215.98 93.33,-205.98 86.33,-205.98"/>
</g>
</g>
</svg>
